<svg id="Ebene_1" data-name="Ebene 1" xmlns="http://www.w3.org/2000/svg" width="117.07mm" height="19.99mm" viewBox="0 0 331.85 56.67">
  <defs>
    <style>
      .cls-1 {
        fill: #212d35;
      }

      .cls-2 {
        fill: #fff;
      }

      .cls-3 {
        fill: #3b3b3b;
      }
    </style>
  </defs>
  <title>JTL-OneTimeLink-Logo-rgb</title>
  <rect class="cls-1" width="76.1" height="56.67" rx="7.78" ry="7.78"/>
  <path class="cls-2" d="M29.49,41.11c0,3.81-.8,6.21-2.38,7.16-1.08.65-3.69,1-7.77,1-3.34,0-5.53-.52-6.5-1.54s-1.47-3.24-1.47-6.59V32.31h7.8v8.25c0,1.77.7,2.14,1.29,2.14s1.07-.25,1.19-1.47V9.29h7.84Z"/>
  <polygon class="cls-2" points="47.3 15.61 43.37 15.61 43.37 49.08 35.52 49.08 35.52 15.61 31.6 15.61 31.6 9.29 47.3 9.29 47.3 15.61"/>
  <polygon class="cls-2" points="62.5 49.08 49.95 49.08 49.95 9.29 57.73 9.29 57.73 42.53 62.5 42.53 62.5 49.08"/>
  <g>
    <path class="cls-3" d="M105.11,16.65c7.78,0,13.46,5.76,13.46,13.14a13.46,13.46,0,1,1-26.92,0C91.65,22.41,97.34,16.65,105.11,16.65Zm0,20.66c3.74,0,6.77-3.24,6.77-7.52a6.78,6.78,0,1,0-13.53,0C98.34,34.07,101.37,37.31,105.11,37.31Z"/>
    <path class="cls-3" d="M122.53,30.29a.72.72,0,0,0-.79-.79h-1.37V24.28h5.54c1.69,0,2.59.83,2.59,2.09v.25a3.78,3.78,0,0,1,0,.43h.07a6.47,6.47,0,0,1,5.87-3.2c3.74,0,6.66,1.73,6.66,6.95v6a.72.72,0,0,0,.79.79h1.37v5.22h-5.76c-1.84,0-2.63-.79-2.63-2.63V32c0-1.73-.68-2.45-2.05-2.45a3.65,3.65,0,0,0-3.67,2.66,7.44,7.44,0,0,0-.36,2.45v8.21h-6.23Z"/>
    <path class="cls-3" d="M154.39,23.85c5.47,0,8.57,3.82,8.57,9,0,.61-.14,1.87-.14,1.87h-11.7a4.13,4.13,0,0,0,4.32,3.38,8.64,8.64,0,0,0,4.93-1.94l2.48,4.18a12,12,0,0,1-7.92,3c-6.62,0-10.19-4.79-10.19-9.72C144.74,28.1,148.41,23.85,154.39,23.85Zm2.2,7.06a2.34,2.34,0,0,0-2.2-2.38,3,3,0,0,0-3.1,2.38Z"/>
    <path class="cls-3" d="M171.7,22.48h-2.09a.72.72,0,0,0-.79.79v1.4h-5.58V19.57c0-1.84.65-2.48,2.48-2.48h18.39c1.84,0,2.48.65,2.48,2.48v5.11H181v-1.4a.72.72,0,0,0-.79-.79h-2.09V42.82H171.7Z"/>
    <path class="cls-3" d="M189.74,30.29a.72.72,0,0,0-.79-.79h-1.37V24.28h5.76c1.84,0,2.63.79,2.63,2.63v9.9a.72.72,0,0,0,.79.79h1.37v5.22h-5.76c-1.84,0-2.63-.79-2.63-2.63Zm.47-13.21h5.22v5h-5.22Z"/>
    <path class="cls-3" d="M201.76,30.29a.72.72,0,0,0-.79-.79H199.6V24.28h5.58c1.69,0,2.59.83,2.59,2.09v.25a3.88,3.88,0,0,1,0,.43h.07a6.46,6.46,0,0,1,5.44-3.2A5.37,5.37,0,0,1,218.43,27h.07a7.16,7.16,0,0,1,5.94-3.13c3.38,0,6,1.84,6,6.95v6a.72.72,0,0,0,.79.79h1.37v5.22h-5.76c-1.84,0-2.63-.79-2.63-2.63V31.84c0-1.37-.25-2.34-1.44-2.34-1.87,0-3,1.51-3.35,3.56a9.51,9.51,0,0,0-.22,2.09v7.67H213v-11c0-1.37-.25-2.34-1.44-2.34-1.84,0-2.88,1.44-3.31,3.42a10.81,10.81,0,0,0-.25,2.23v7.67h-6.23Z"/>
    <path class="cls-3" d="M243.77,23.85c5.47,0,8.57,3.82,8.57,9,0,.61-.14,1.87-.14,1.87h-11.7a4.13,4.13,0,0,0,4.32,3.38,8.64,8.64,0,0,0,4.93-1.94l2.48,4.18a12,12,0,0,1-7.92,3c-6.62,0-10.19-4.79-10.19-9.72C234.12,28.1,237.79,23.85,243.77,23.85Zm2.2,7.06a2.34,2.34,0,0,0-2.2-2.38,3,3,0,0,0-3.1,2.38Z"/>
    <path class="cls-3" d="M256.87,23.27a.72.72,0,0,0-.79-.79h-1.55v-5.4h6.16c1.84,0,2.63.79,2.63,2.63V36.63a.72.72,0,0,0,.79.79h3.38a.72.72,0,0,0,.79-.79v-1.4H274v5c0,1.84-.79,2.63-2.63,2.63H259.5c-1.84,0-2.63-.79-2.63-2.63Z"/>
    <path class="cls-3" d="M277.35,30.29a.72.72,0,0,0-.79-.79h-1.37V24.28H281c1.84,0,2.63.79,2.63,2.63v9.9a.72.72,0,0,0,.79.79h1.37v5.22H280c-1.84,0-2.63-.79-2.63-2.63Zm.47-13.21H283v5h-5.22Z"/>
    <path class="cls-3" d="M289.38,30.29a.72.72,0,0,0-.79-.79h-1.37V24.28h5.54c1.69,0,2.59.83,2.59,2.09v.25a3.78,3.78,0,0,1,0,.43h.07a6.47,6.47,0,0,1,5.87-3.2c3.74,0,6.66,1.73,6.66,6.95v6a.72.72,0,0,0,.79.79h1.37v5.22h-5.76c-1.84,0-2.63-.79-2.63-2.63V32c0-1.73-.68-2.45-2.05-2.45A3.65,3.65,0,0,0,296,32.17a7.44,7.44,0,0,0-.36,2.45v8.21h-6.23Z"/>
    <path class="cls-3" d="M313.38,23.1a.72.72,0,0,0-.79-.79h-1.37V17.08H317c1.84,0,2.63.25,2.63,2.09V30.4h1c.54,0,1.15,0,1.48-.58l3-5.54h6.77l-4.21,7.13A4,4,0,0,1,326.27,33V33a3.13,3.13,0,0,1,1.4,1.55L328.86,37c.25.5.65.61,1.37.61h1.44v5.22H327c-1.33,0-2.05-.22-2.66-1.4l-2.66-5.18a1.48,1.48,0,0,0-1.48-.61h-.54v7.2h-6.23Z"/>
  </g>
</svg>
